<svg xmlns="http://www.w3.org/2000/svg" width="1018.41" height="582.88" viewBox="0 0 1018.41 582.88">
  <title>pattern</title>
  <polygon points="49.58 11.2 79.98 67.96 0 34.74 49.58 11.2"/>
  <polygon points="147.18 510.9 177.58 567.67 97.6 534.45 147.18 510.9"/>
  <polygon points="344.79 69.56 406.85 86.71 327.63 121.69 344.79 69.56"/>
  <polygon points="921.44 507.91 1002.22 471.06 968.6 550.87 921.44 507.91"/>
  <polygon points="492.92 495.02 556.42 496.29 494.68 582.88 492.92 495.02"/>
  <polygon points="605.17 237.59 643.71 187.11 677.1 288.07 605.17 237.59"/>
  <polygon points="962.69 0 1018.41 30.48 923.64 78.72 962.69 0"/>
  <rect x="776.01" y="389.4" width="15" height="77.33" transform="translate(286.05 1169.59) rotate(-84.88)"/>
  <rect x="885.09" y="205.23" width="77.33" height="15" transform="translate(-25.32 225) rotate(-13.75)"/>
  <rect x="229.5" y="256.56" width="15" height="77.33" transform="translate(-134.03 213.42) rotate(-38.87)"/>
  <rect x="33.72" y="217.5" width="15" height="77.33" transform="translate(-17.67 2.5) rotate(-3.7)"/>
  <rect x="619.21" y="55.28" width="38.67" height="15" transform="translate(329.53 625.07) rotate(-66.95)"/>
  <rect x="432.36" y="357.35" width="38.67" height="15" transform="translate(-62.11 636.95) rotate(-66.95)"/>
</svg>
